<svg xmlns="http://www.w3.org/2000/svg" width="120" height="30" viewBox="0 0 120 30">
    <path fill="#DB6363" fill-rule="evenodd" d="M13.93 11.5c-.54.66-1.325 1.185-2.355 1.575-1.03.39-2.235.585-3.615.585H4.48V22H.25V1.06h7.71c2.42 0 4.285.605 5.595 1.815 1.31 1.21 1.965 2.635 1.965 4.275 0 1.64-.53 3.09-1.59 4.35zm-9.45-1.08h3.48c1.06 0 1.87-.275 2.43-.825.56-.55.84-1.295.84-2.235s-.28-1.685-.84-2.235c-.56-.55-1.37-.825-2.43-.825H4.48v6.12zm26.513-5.04h4.23V22h-4.23v-2.52c-1.06 1.82-2.79 2.73-5.19 2.73-1.88 0-3.42-.625-4.62-1.875-1.2-1.25-1.8-2.985-1.8-5.205V5.38h4.2v9.15c0 1.3.33 2.3.99 3 .66.7 1.56 1.05 2.7 1.05 1.14 0 2.045-.35 2.715-1.05.67-.7 1.005-1.7 1.005-3V5.38zm22.554 8.28c0-1.52-.435-2.71-1.305-3.57-.87-.86-1.895-1.29-3.075-1.29-1.18 0-2.205.435-3.075 1.305-.87.87-1.305 2.065-1.305 3.585s.435 2.715 1.305 3.585c.87.87 1.895 1.305 3.075 1.305 1.18 0 2.205-.44 3.075-1.32.87-.88 1.305-2.08 1.305-3.6zm-8.76-5.7c1.18-1.88 2.91-2.82 5.19-2.82 2.28 0 4.16.795 5.64 2.385 1.48 1.59 2.22 3.64 2.22 6.15 0 2.51-.74 4.565-2.22 6.165-1.48 1.6-3.345 2.4-5.595 2.4-2.25 0-3.995-1.01-5.235-3.03v10.71h-4.23V5.38h4.23v2.58zm21.938-3.165c-.53.43-.795 1.025-.795 1.785s.195 1.355.585 1.785c.39.43.905.76 1.545.99.64.23 1.34.435 2.1.615s1.52.4 2.28.66c.76.26 1.46.58 2.1.96.64.38 1.155.935 1.545 1.665.39.73.585 1.615.585 2.655 0 1.72-.685 3.2-2.055 4.44-1.37 1.24-3.19 1.86-5.46 1.86s-4.105-.535-5.505-1.605c-1.4-1.07-2.1-2.575-2.1-4.515h4.5c.16 1.84 1.21 2.76 3.15 2.76.96 0 1.72-.25 2.28-.75.56-.5.84-1.165.84-1.995 0-.83-.37-1.485-1.11-1.965-.74-.48-1.635-.84-2.685-1.08-1.05-.24-2.105-.53-3.165-.87a5.914 5.914 0 0 1-2.7-1.785c-.74-.85-1.11-1.975-1.11-3.375 0-1.9.69-3.42 2.07-4.56C65 1.33 66.775.76 68.945.76c2.17 0 3.915.495 5.235 1.485 1.32.99 2.04 2.495 2.16 4.515h-4.62c-.08-.8-.38-1.435-.9-1.905s-1.2-.705-2.04-.705c-.84 0-1.525.215-2.055.645zm27.818 8.865c0-1.52-.435-2.71-1.305-3.57-.87-.86-1.895-1.29-3.075-1.29-1.18 0-2.205.435-3.075 1.305-.87.87-1.305 2.065-1.305 3.585s.435 2.715 1.305 3.585c.87.87 1.895 1.305 3.075 1.305 1.18 0 2.205-.44 3.075-1.32.87-.88 1.305-2.08 1.305-3.6zm-8.76-5.7c1.18-1.88 2.91-2.82 5.19-2.82 2.28 0 4.16.795 5.64 2.385 1.48 1.59 2.22 3.64 2.22 6.15 0 2.51-.74 4.565-2.22 6.165-1.48 1.6-3.345 2.4-5.595 2.4-2.25 0-3.995-1.01-5.235-3.03v10.71h-4.23V5.38h4.23v2.58zm29.124 5.73c0-1.52-.44-2.715-1.32-3.585-.88-.87-1.91-1.305-3.09-1.305s-2.205.43-3.075 1.29c-.87.86-1.305 2.05-1.305 3.57s.44 2.72 1.32 3.6c.88.88 1.905 1.32 3.075 1.32 1.17 0 2.195-.435 3.075-1.305.88-.87 1.32-2.065 1.32-3.585zm-13.08-.03c0-2.5.74-4.545 2.22-6.135 1.48-1.59 3.36-2.385 5.64-2.385s4.02.94 5.22 2.82V5.38h4.2V22h-4.2v-2.79c-1.26 2.02-3.01 3.03-5.25 3.03s-4.105-.805-5.595-2.415c-1.49-1.61-2.235-3.665-2.235-6.165z"/>
</svg>
